<?xml version="1.0" encoding="UTF-8"?><svg xmlns="http://www.w3.org/2000/svg" xmlns:xlink="http://www.w3.org/1999/xlink" fill-opacity="1" color-rendering="auto" color-interpolation="auto" text-rendering="auto" stroke="black" stroke-linecap="square" width="534" stroke-miterlimit="10" shape-rendering="auto" stroke-opacity="1" fill="black" stroke-dasharray="none" font-weight="normal" stroke-width="1" height="466" font-family="'Dialog'" font-style="normal" stroke-linejoin="miter" font-size="12px" stroke-dashoffset="0" image-rendering="auto">
  <!--Generated by ySVG 2.5-->
  <defs id="genericDefs"/>
  <g>
    <defs id="defs1">
      <clipPath clipPathUnits="userSpaceOnUse" id="clipPath1">
        <path d="M0 0 L534 0 L534 466 L0 466 L0 0 Z"/>
      </clipPath>
      <clipPath clipPathUnits="userSpaceOnUse" id="clipPath2">
        <path d="M236 41 L770 41 L770 507 L236 507 L236 41 Z"/>
      </clipPath>
      <clipPath clipPathUnits="userSpaceOnUse" id="clipPath3">
        <path d="M381 46 L622 46 L622 256 L381 256 L381 46 Z"/>
      </clipPath>
      <clipPath clipPathUnits="userSpaceOnUse" id="clipPath4">
        <path d="M0 0 L0 112 L141 112 L141 0 Z"/>
      </clipPath>
      <clipPath clipPathUnits="userSpaceOnUse" id="clipPath5">
        <path d="M523 309 L764 309 L764 502 L523 502 L523 309 Z"/>
      </clipPath>
      <clipPath clipPathUnits="userSpaceOnUse" id="clipPath6">
        <path d="M241 309 L482 309 L482 384 L241 384 L241 309 Z"/>
      </clipPath>
      <clipPath clipPathUnits="userSpaceOnUse" id="clipPath7">
        <path d="M0 0 L0 18 L60 18 L60 0 Z"/>
      </clipPath>
      <script type="text/ecmascript"><![CDATA[      var SVGDocument = null;
      var SVGRoot = null;
      var TrueCoords = null;
      var lastElement = null;
      var initialized = null;
      var tipGroup;
      function Init(evt)
      {
         SVGDocument = evt.target.ownerDocument;
         SVGRoot = SVGDocument.documentElement;
         TrueCoords = SVGRoot.createSVGPoint();
         initialized = evt;
      };
      function GetTrueCoords(evt)
      {
         var newScale = SVGRoot.currentScale;
         var translation = SVGRoot.currentTranslate;
         TrueCoords.x = (evt.clientX - translation.x)/newScale;
         TrueCoords.y = (evt.clientY - translation.y)/newScale;
      };
      function HideTooltip( evt )
      {
         if(initialized == null) {
           Init(evt);
         }
         if(tipGroup != null) {
           tipGroup.setAttributeNS(null, 'visibility', 'hidden');
         }
      };
      function ShowTooltip( evt )
      {
         if(initialized == null) {
           Init(evt);
         }
         GetTrueCoords( evt );
         var tipScale = 1/SVGRoot.currentScale;
         var targetElement = evt.currentTarget;
         if ( lastElement != targetElement )
         {
            var targetId = targetElement.getAttributeNS(null, 'id');
            var tipId = 'tooltip.' + targetId;
            tipGroup = SVGDocument.getElementById(tipId);
            var xPos = TrueCoords.x + (10 * tipScale);
            var yPos = TrueCoords.y + (10 * tipScale);
            tipGroup.setAttributeNS(null, 'transform', 'translate(' + xPos + ',' + yPos + ') scale(' + tipScale + ')');
            tipGroup.setAttributeNS(null, 'visibility', 'visible');
         }
      };
]]></script>
    </defs>
    <g fill="white" text-rendering="geometricPrecision" shape-rendering="geometricPrecision" transform="translate(-236,-41)" stroke="white">
      <rect x="236" width="534" height="466" y="41" clip-path="url(#clipPath2)" stroke="none"/>
    </g>
    <g onmouseout="HideTooltip(evt)" id="y.node.0" onmousemove="ShowTooltip(evt)">
      <g fill="rgb(255,204,0)" text-rendering="geometricPrecision" shape-rendering="geometricPrecision" transform="matrix(1,0,0,1,-236,-41)" stroke="rgb(255,204,0)">
        <rect x="382" width="239" height="208" y="47" stroke="none"/>
      </g>
      <g fill="yellow" text-rendering="geometricPrecision" shape-rendering="geometricPrecision" transform="matrix(1,0,0,1,-236,-41)" stroke="yellow">
        <rect x="381" width="1" height="210" y="46" stroke="none"/>
        <rect x="382" width="239" height="1" y="46" stroke="none"/>
        <rect fill="rgb(178,142,0)" x="382" width="240" height="1" y="255" stroke="none"/>
        <rect fill="rgb(178,142,0)" x="621" width="1" height="209" y="46" stroke="none"/>
      </g>
      <g text-rendering="geometricPrecision" stroke-miterlimit="1.45" shape-rendering="geometricPrecision" font-family="sans-serif" transform="matrix(1,0,0,1,-236,-41)" stroke-linecap="butt">
        <text x="466.6416" xml:space="preserve" y="63.0645" clip-path="url(#clipPath3)" stroke="none">&lt;&lt;abstract&gt;&gt;</text>
      </g>
      <g>
        <g font-size="13px" stroke-linecap="butt" transform="matrix(1,0,0,1,-236,-41)" text-rendering="geometricPrecision" font-family="sans-serif" shape-rendering="geometricPrecision" font-weight="bold" stroke-miterlimit="1.45">
          <text x="468.77" xml:space="preserve" y="87.771" clip-path="url(#clipPath3)" stroke="none">Mitarbeiter</text>
        </g>
      </g>
      <g text-rendering="geometricPrecision" shape-rendering="geometricPrecision" transform="matrix(1,0,0,1,-236,-41)">
        <line y2="95" fill="none" x1="382" clip-path="url(#clipPath3)" x2="621" y1="95"/>
        <text stroke-linecap="butt" x="386.5" y="112.6919" clip-path="url(#clipPath3)" font-family="sans-serif" stroke="none" stroke-miterlimit="1.45" xml:space="preserve">name: String</text>
        <text stroke-linecap="butt" x="386.5" y="127.3931" clip-path="url(#clipPath3)" font-family="sans-serif" stroke="none" stroke-miterlimit="1.45" xml:space="preserve">telefonnr: int</text>
        <line y2="135" fill="none" x1="382" clip-path="url(#clipPath3)" x2="621" y1="135"/>
      </g>
      <g stroke-linecap="butt" transform="matrix(1,0,0,1,-236,-41) translate(386,140)" text-rendering="geometricPrecision" font-family="sans-serif" shape-rendering="geometricPrecision" font-style="italic" stroke-miterlimit="1.45">
        <text x="0" xml:space="preserve" y="13" clip-path="url(#clipPath4)" stroke="none">getMitarbeiterAnzahl(): int</text>
        <text font-style="normal" x="141" xml:space="preserve" y="13" clip-path="url(#clipPath4)" stroke="none"> </text>
        <text x="0" xml:space="preserve" y="29" clip-path="url(#clipPath4)" stroke="none">print()</text>
        <text font-style="normal" x="32" xml:space="preserve" y="29" clip-path="url(#clipPath4)" stroke="none"> </text>
        <text font-style="normal" x="0" xml:space="preserve" y="45" clip-path="url(#clipPath4)" stroke="none"> </text>
        <text font-style="normal" x="0" xml:space="preserve" y="61" clip-path="url(#clipPath4)" stroke="none">getName(): String</text>
        <text font-style="normal" x="97" xml:space="preserve" y="61" clip-path="url(#clipPath4)" stroke="none"> </text>
        <text font-style="normal" x="0" xml:space="preserve" y="77" clip-path="url(#clipPath4)" stroke="none">setName(name: String)</text>
        <text font-style="normal" x="129" xml:space="preserve" y="77" clip-path="url(#clipPath4)" stroke="none"> </text>
        <text font-style="normal" x="0" xml:space="preserve" y="93" clip-path="url(#clipPath4)" stroke="none">getTelefonNr(): int</text>
        <text font-style="normal" x="98" xml:space="preserve" y="93" clip-path="url(#clipPath4)" stroke="none"> </text>
        <text font-style="normal" x="0" xml:space="preserve" y="109" clip-path="url(#clipPath4)" stroke="none">setTelefonNr(nr: int)</text>
      </g>
    </g>
    <g onmouseout="HideTooltip(evt)" id="y.node.1" onmousemove="ShowTooltip(evt)">
      <g fill="rgb(255,204,0)" text-rendering="geometricPrecision" shape-rendering="geometricPrecision" transform="matrix(1,0,0,1,-236,-41)" stroke="rgb(255,204,0)">
        <rect x="524" width="239" height="191" y="310" stroke="none"/>
        <rect fill="yellow" x="523" width="1" height="193" y="309" stroke="none"/>
        <rect fill="yellow" x="524" width="239" height="1" y="309" stroke="none"/>
        <rect fill="rgb(178,142,0)" x="524" width="240" height="1" y="501" stroke="none"/>
        <rect fill="rgb(178,142,0)" x="763" width="1" height="192" y="309" stroke="none"/>
      </g>
      <g>
        <g font-size="13px" stroke-linecap="butt" transform="matrix(1,0,0,1,-236,-41)" text-rendering="geometricPrecision" font-family="sans-serif" shape-rendering="geometricPrecision" font-weight="bold" stroke-miterlimit="1.45">
          <text x="594.545" xml:space="preserve" y="327.0698" clip-path="url(#clipPath5)" stroke="none">Abteilungsleiter</text>
        </g>
      </g>
      <g text-rendering="geometricPrecision" shape-rendering="geometricPrecision" transform="matrix(1,0,0,1,-236,-41)">
        <line y2="334" fill="none" x1="524" clip-path="url(#clipPath5)" x2="763" y1="334"/>
        <text stroke-linecap="butt" x="528.1632" y="351.9907" clip-path="url(#clipPath5)" font-family="sans-serif" stroke="none" stroke-miterlimit="1.45" xml:space="preserve">abteilung: String</text>
        <line y2="359" fill="none" x1="524" clip-path="url(#clipPath5)" x2="763" y1="359"/>
        <text stroke-linecap="butt" x="528.1632" y="376.6919" clip-path="url(#clipPath5)" font-family="sans-serif" stroke="none" stroke-miterlimit="1.45" xml:space="preserve">getMitarbeiterAnzahl(): int</text>
        <text stroke-linecap="butt" x="528.1632" y="391.3931" clip-path="url(#clipPath5)" font-family="sans-serif" stroke="none" stroke-miterlimit="1.45" xml:space="preserve">print()</text>
        <text stroke-linecap="butt" x="528.1632" y="406.0942" clip-path="url(#clipPath5)" font-family="sans-serif" stroke="none" stroke-miterlimit="1.45" xml:space="preserve"> </text>
        <text stroke-linecap="butt" x="528.1632" y="420.7954" clip-path="url(#clipPath5)" font-family="sans-serif" stroke="none" stroke-miterlimit="1.45" xml:space="preserve">add(ma: Mitarbeiter)</text>
        <text stroke-linecap="butt" x="528.1632" y="435.4966" clip-path="url(#clipPath5)" font-family="sans-serif" stroke="none" stroke-miterlimit="1.45" xml:space="preserve">remove(ma: Mitarbeiter)</text>
        <text stroke-linecap="butt" x="528.1632" y="450.1978" clip-path="url(#clipPath5)" font-family="sans-serif" stroke="none" stroke-miterlimit="1.45" xml:space="preserve">getMitarbeiter(index: int): Mitarbeiter</text>
        <text stroke-linecap="butt" x="528.1632" y="464.8989" clip-path="url(#clipPath5)" font-family="sans-serif" stroke="none" stroke-miterlimit="1.45" xml:space="preserve"> </text>
        <text stroke-linecap="butt" x="528.1632" y="479.6001" clip-path="url(#clipPath5)" font-family="sans-serif" stroke="none" stroke-miterlimit="1.45" xml:space="preserve">getAbteilung(): String</text>
        <text stroke-linecap="butt" x="528.1632" y="494.3013" clip-path="url(#clipPath5)" font-family="sans-serif" stroke="none" stroke-miterlimit="1.45" xml:space="preserve">setAbteilung(abteilung: String)</text>
      </g>
    </g>
    <g onmouseout="HideTooltip(evt)" id="y.node.2" onmousemove="ShowTooltip(evt)">
      <g fill="rgb(255,204,0)" text-rendering="geometricPrecision" shape-rendering="geometricPrecision" transform="matrix(1,0,0,1,-236,-41)" stroke="rgb(255,204,0)">
        <rect x="242" width="239" height="73" y="310" stroke="none"/>
        <rect fill="yellow" x="241" width="1" height="75" y="309" stroke="none"/>
        <rect fill="yellow" x="242" width="239" height="1" y="309" stroke="none"/>
        <rect fill="rgb(178,142,0)" x="242" width="240" height="1" y="383" stroke="none"/>
        <rect fill="rgb(178,142,0)" x="481" width="1" height="74" y="309" stroke="none"/>
      </g>
      <g>
        <g font-size="13px" stroke-linecap="butt" transform="matrix(1,0,0,1,-236,-41)" text-rendering="geometricPrecision" font-family="sans-serif" shape-rendering="geometricPrecision" font-weight="bold" stroke-miterlimit="1.45">
          <text x="299.84" xml:space="preserve" y="327.0698" clip-path="url(#clipPath6)" stroke="none">AtomarerMitarbeiter</text>
        </g>
      </g>
      <g text-rendering="geometricPrecision" shape-rendering="geometricPrecision" transform="matrix(1,0,0,1,-236,-41)">
        <line y2="334" fill="none" x1="242" clip-path="url(#clipPath6)" x2="481" y1="334"/>
        <line y2="344" fill="none" x1="242" clip-path="url(#clipPath6)" x2="481" y1="344"/>
        <text stroke-linecap="butt" x="246.4677" y="361.9907" clip-path="url(#clipPath6)" font-family="sans-serif" stroke="none" stroke-miterlimit="1.45" xml:space="preserve">getMitarbeiterAnzahl(): int</text>
        <text stroke-linecap="butt" x="246.4677" y="376.6919" clip-path="url(#clipPath6)" font-family="sans-serif" stroke="none" stroke-miterlimit="1.45" xml:space="preserve">print()</text>
      </g>
    </g>
    <g id="y.node.3">
      <g fill="white" text-rendering="geometricPrecision" shape-rendering="geometricPrecision" transform="matrix(1,0,0,1,-236,-41)" stroke="white">
        <rect x="241.4677" width="87" height="29" y="130.1683" stroke="none"/>
      </g>
      <g>
        <g stroke-linecap="butt" transform="matrix(1,0,0,1,-236,-41)" fill="gray" text-rendering="geometricPrecision" font-family="sans-serif" shape-rendering="geometricPrecision" stroke="gray" stroke-miterlimit="1.45">
          <text x="269.6278" xml:space="preserve" y="149.3822" stroke="none">Client</text>
        </g>
      </g>
      <g stroke-linecap="butt" transform="matrix(1,0,0,1,-236,-41)" fill="gray" text-rendering="geometricPrecision" shape-rendering="geometricPrecision" stroke="gray" stroke-miterlimit="1.45">
        <rect fill="none" x="241.4677" width="87" height="29" y="130.1683"/>
      </g>
    </g>
    <g id="y.edge.2">
      <g text-rendering="geometricPrecision" stroke-miterlimit="1.45" shape-rendering="geometricPrecision" transform="matrix(1,0,0,1,-236,-41)" stroke-linecap="butt">
        <path fill="none" d="M622.4919 151 L724.4632 151 L724.4632 301.9752"/>
        <path fill="white" d="M724.4632 308.9752 L719.4632 301.9752 L724.4632 294.9752 L729.4632 301.9752 Z" stroke="none"/>
        <path fill="none" d="M724.4632 308.9752 L719.4632 301.9752 L724.4632 294.9752 L729.4632 301.9752 Z"/>
      </g>
      <g>
        <g text-rendering="geometricPrecision" stroke-miterlimit="1.45" shape-rendering="geometricPrecision" font-family="sans-serif" transform="matrix(1,0,0,1,-236,-41)" stroke-linecap="butt">
          <text x="634.625" xml:space="preserve" y="144.3633" stroke="none">mitarbeiter</text>
        </g>
      </g>
      <g>
        <g text-rendering="geometricPrecision" stroke-miterlimit="1.45" shape-rendering="geometricPrecision" font-family="sans-serif" transform="matrix(1,0,0,1,-236,-41)" stroke-linecap="butt">
          <text x="634.625" xml:space="preserve" y="167.0645" stroke="none">0..*</text>
        </g>
      </g>
    </g>
    <g id="y.edge.1">
      <g text-rendering="geometricPrecision" stroke-miterlimit="1.45" shape-rendering="geometricPrecision" transform="matrix(1,0,0,1,-236,-41)" stroke-linecap="butt">
        <path fill="none" d="M565.847 308.9771 L565.847 271.0289"/>
        <path fill="white" d="M565.847 256.0289 L559.847 272.0289 L571.847 272.0289 Z" stroke="none"/>
        <path fill="none" d="M565.847 256.0289 L559.847 272.0289 L571.847 272.0289 Z"/>
      </g>
      <g/>
    </g>
    <g id="y.edge.0">
      <g text-rendering="geometricPrecision" stroke-miterlimit="1.45" shape-rendering="geometricPrecision" transform="matrix(1,0,0,1,-236,-41)" stroke-linecap="butt">
        <path fill="none" d="M438.5 308.9756 L438.5 271.0287"/>
        <path fill="white" d="M438.5 256.0287 L432.5 272.0287 L444.5 272.0287 Z" stroke="none"/>
        <path fill="none" d="M438.5 256.0287 L432.5 272.0287 L444.5 272.0287 Z"/>
      </g>
      <g/>
    </g>
    <g id="y.edge.3">
      <g stroke-linecap="butt" transform="matrix(1,0,0,1,-236,-41)" fill="gray" text-rendering="geometricPrecision" shape-rendering="geometricPrecision" stroke="gray" stroke-miterlimit="1.45">
        <path fill="none" d="M328.4677 144.6683 L373.5155 144.6683"/>
        <path d="M381.5155 144.6683 L369.5155 139.6683 L372.5155 144.6683 L369.5155 149.6683 Z" stroke="none"/>
      </g>
    </g>
    <g visibility="hidden" id="tooltip.y.node.0" pointer-events="none">
      <g fill="rgb(255,255,225)" text-rendering="geometricPrecision" shape-rendering="geometricPrecision" font-family="'Segoe UI'" stroke="rgb(255,255,225)">
        <rect x="0" width="60" height="18" y="0" clip-path="url(#clipPath7)" stroke="none"/>
        <text fill="black" x="4" xml:space="preserve" y="14" clip-path="url(#clipPath7)" stroke="none">UMLClass</text>
      </g>
      <g font-family="'Segoe UI'" text-rendering="geometricPrecision" shape-rendering="geometricPrecision">
        <path d="M0 0 L60 0 L60 18 L0 18 L0 0 ZM1 1 L59 1 L59 17 L1 17 L1 1 Z" fill-rule="evenodd" clip-path="url(#clipPath7)" stroke="none"/>
      </g>
    </g>
    <g visibility="hidden" id="tooltip.y.node.1" pointer-events="none">
      <g fill="rgb(255,255,225)" text-rendering="geometricPrecision" shape-rendering="geometricPrecision" font-family="'Segoe UI'" stroke="rgb(255,255,225)">
        <rect x="0" width="60" height="18" y="0" clip-path="url(#clipPath7)" stroke="none"/>
        <text fill="black" x="4" xml:space="preserve" y="14" clip-path="url(#clipPath7)" stroke="none">UMLClass</text>
      </g>
      <g font-family="'Segoe UI'" text-rendering="geometricPrecision" shape-rendering="geometricPrecision">
        <path d="M0 0 L60 0 L60 18 L0 18 L0 0 ZM1 1 L59 1 L59 17 L1 17 L1 1 Z" fill-rule="evenodd" clip-path="url(#clipPath7)" stroke="none"/>
      </g>
    </g>
    <g visibility="hidden" id="tooltip.y.node.2" pointer-events="none">
      <g fill="rgb(255,255,225)" text-rendering="geometricPrecision" shape-rendering="geometricPrecision" font-family="'Segoe UI'" stroke="rgb(255,255,225)">
        <rect x="0" width="60" height="18" y="0" clip-path="url(#clipPath7)" stroke="none"/>
        <text fill="black" x="4" xml:space="preserve" y="14" clip-path="url(#clipPath7)" stroke="none">UMLClass</text>
      </g>
      <g font-family="'Segoe UI'" text-rendering="geometricPrecision" shape-rendering="geometricPrecision">
        <path d="M0 0 L60 0 L60 18 L0 18 L0 0 ZM1 1 L59 1 L59 17 L1 17 L1 1 Z" fill-rule="evenodd" clip-path="url(#clipPath7)" stroke="none"/>
      </g>
    </g>
  </g>
</svg>
