<?xml version="1.0" encoding="UTF-8"?><svg xmlns="http://www.w3.org/2000/svg" xmlns:xlink="http://www.w3.org/1999/xlink" fill-opacity="1" color-rendering="auto" color-interpolation="auto" text-rendering="auto" stroke="black" stroke-linecap="square" width="570" stroke-miterlimit="10" shape-rendering="auto" stroke-opacity="1" fill="black" stroke-dasharray="none" font-weight="normal" stroke-width="1" height="341" font-family="'Dialog'" font-style="normal" stroke-linejoin="miter" font-size="12px" stroke-dashoffset="0" image-rendering="auto">
  <!--Generated by ySVG 2.5-->
  <defs id="genericDefs"/>
  <g>
    <defs id="defs1">
      <clipPath clipPathUnits="userSpaceOnUse" id="clipPath1">
        <path d="M0 0 L570 0 L570 341 L0 341 L0 0 Z"/>
      </clipPath>
      <clipPath clipPathUnits="userSpaceOnUse" id="clipPath2">
        <path d="M-75 -77 L495 -77 L495 264 L-75 264 L-75 -77 Z"/>
      </clipPath>
    </defs>
    <g fill="white" text-rendering="geometricPrecision" shape-rendering="geometricPrecision" transform="translate(75,77)" stroke="white">
      <rect x="-75" width="570" height="341" y="-77" clip-path="url(#clipPath2)" stroke="none"/>
    </g>
    <g fill="rgb(224,224,224)" text-rendering="geometricPrecision" shape-rendering="geometricPrecision" transform="matrix(1,0,0,1,75,77)" stroke="rgb(224,224,224)">
      <ellipse rx="52.3714" ry="18" clip-path="url(#clipPath2)" cx="182.75" cy="12" stroke="none"/>
    </g>
    <g font-size="11px" stroke-linecap="butt" transform="matrix(1,0,0,1,75,77)" text-rendering="geometricPrecision" font-family="sans-serif" shape-rendering="geometricPrecision" stroke-miterlimit="1.45">
      <text x="158.5586" xml:space="preserve" y="9.4058" clip-path="url(#clipPath2)" stroke="none">A. Müller</text>
      <text x="157.9919" xml:space="preserve" y="22.2104" clip-path="url(#clipPath2)" stroke="none">Vorstand</text>
    </g>
    <g stroke-linecap="butt" transform="matrix(1,0,0,1,75,77)" fill="rgb(66,139,202)" text-rendering="geometricPrecision" shape-rendering="geometricPrecision" stroke="rgb(66,139,202)" stroke-width="4" stroke-miterlimit="1.45">
      <ellipse rx="52.3714" fill="none" ry="18" clip-path="url(#clipPath2)" cx="182.75" cy="12"/>
    </g>
    <g fill="rgb(224,224,224)" text-rendering="geometricPrecision" shape-rendering="geometricPrecision" transform="matrix(1,0,0,1,75,77)" stroke="rgb(224,224,224)">
      <ellipse rx="52.3714" ry="18" clip-path="url(#clipPath2)" cx="50.9167" cy="88.2552" stroke="none"/>
    </g>
    <g font-size="11px" stroke-linecap="butt" transform="matrix(1,0,0,1,75,77)" text-rendering="geometricPrecision" font-family="sans-serif" shape-rendering="geometricPrecision" stroke-miterlimit="1.45">
      <text x="22.2699" xml:space="preserve" y="85.661" clip-path="url(#clipPath2)" stroke="none">W. Fischer</text>
      <text x="28.6884" xml:space="preserve" y="98.4657" clip-path="url(#clipPath2)" stroke="none">Vertrieb</text>
    </g>
    <g stroke-linecap="butt" transform="matrix(1,0,0,1,75,77)" fill="rgb(66,139,202)" text-rendering="geometricPrecision" shape-rendering="geometricPrecision" stroke="rgb(66,139,202)" stroke-width="4" stroke-miterlimit="1.45">
      <ellipse rx="52.3714" fill="none" ry="18" clip-path="url(#clipPath2)" cx="50.9167" cy="88.2552"/>
    </g>
    <g fill="rgb(224,224,224)" text-rendering="geometricPrecision" shape-rendering="geometricPrecision" transform="matrix(1,0,0,1,75,77)" stroke="rgb(224,224,224)">
      <ellipse rx="52.3714" ry="18" clip-path="url(#clipPath2)" cx="314.5833" cy="88.2552" stroke="none"/>
    </g>
    <g font-size="11px" stroke-linecap="butt" transform="matrix(1,0,0,1,75,77)" text-rendering="geometricPrecision" font-family="sans-serif" shape-rendering="geometricPrecision" stroke-miterlimit="1.45">
      <text x="281.8089" xml:space="preserve" y="85.661" clip-path="url(#clipPath2)" stroke="none">M. Hardbrot</text>
      <text x="281.2396" xml:space="preserve" y="98.4657" clip-path="url(#clipPath2)" stroke="none">Entwicklung</text>
    </g>
    <g stroke-linecap="butt" transform="matrix(1,0,0,1,75,77)" fill="rgb(66,139,202)" text-rendering="geometricPrecision" shape-rendering="geometricPrecision" stroke="rgb(66,139,202)" stroke-width="4" stroke-miterlimit="1.45">
      <ellipse rx="52.3714" fill="none" ry="18" clip-path="url(#clipPath2)" cx="314.5833" cy="88.2552"/>
    </g>
    <g fill="rgb(224,224,224)" text-rendering="geometricPrecision" shape-rendering="geometricPrecision" transform="matrix(1,0,0,1,75,77)" stroke="rgb(224,224,224)">
      <ellipse rx="52.3714" ry="18" clip-path="url(#clipPath2)" cx="371.875" cy="164.5104" stroke="none"/>
    </g>
    <g font-size="11px" stroke-linecap="butt" transform="matrix(1,0,0,1,75,77)" text-rendering="geometricPrecision" font-family="sans-serif" shape-rendering="geometricPrecision" stroke-miterlimit="1.45">
      <text x="351.5535" xml:space="preserve" y="161.9162" clip-path="url(#clipPath2)" stroke="none">T. Kunz</text>
      <text x="338.4749" xml:space="preserve" y="174.7209" clip-path="url(#clipPath2)" stroke="none">Technologie</text>
    </g>
    <g stroke-linecap="butt" transform="matrix(1,0,0,1,75,77)" fill="rgb(66,139,202)" text-rendering="geometricPrecision" shape-rendering="geometricPrecision" stroke="rgb(66,139,202)" stroke-width="4" stroke-miterlimit="1.45">
      <ellipse rx="52.3714" fill="none" ry="18" clip-path="url(#clipPath2)" cx="371.875" cy="164.5104"/>
    </g>
    <g fill="white" text-rendering="geometricPrecision" shape-rendering="geometricPrecision" transform="matrix(1,0,0,1,75,77)" stroke="white">
      <ellipse rx="52.3714" ry="18" clip-path="url(#clipPath2)" cx="182.75" cy="88.2552" stroke="none"/>
    </g>
    <g font-size="11px" stroke-linecap="butt" transform="matrix(1,0,0,1,75,77)" text-rendering="geometricPrecision" font-family="sans-serif" shape-rendering="geometricPrecision" stroke-miterlimit="1.45">
      <text x="152.7847" xml:space="preserve" y="92.0633" clip-path="url(#clipPath2)" stroke="none">U. Temann</text>
    </g>
    <g stroke-linecap="butt" transform="matrix(1,0,0,1,75,77)" fill="rgb(66,139,202)" text-rendering="geometricPrecision" shape-rendering="geometricPrecision" stroke="rgb(66,139,202)" stroke-width="4" stroke-miterlimit="1.45">
      <ellipse rx="52.3714" fill="none" ry="18" clip-path="url(#clipPath2)" cx="182.75" cy="88.2552"/>
    </g>
    <g fill="white" text-rendering="geometricPrecision" shape-rendering="geometricPrecision" transform="matrix(1,0,0,1,75,77)" stroke="white">
      <ellipse rx="52.3714" ry="18" clip-path="url(#clipPath2)" cx="257.6417" cy="164.5104" stroke="none"/>
    </g>
    <g font-size="11px" stroke-linecap="butt" transform="matrix(1,0,0,1,75,77)" text-rendering="geometricPrecision" font-family="sans-serif" shape-rendering="geometricPrecision" stroke-miterlimit="1.45">
      <text x="228.1356" xml:space="preserve" y="168.3185" clip-path="url(#clipPath2)" stroke="none">E. Schmidt</text>
    </g>
    <g stroke-linecap="butt" transform="matrix(1,0,0,1,75,77)" fill="rgb(66,139,202)" text-rendering="geometricPrecision" shape-rendering="geometricPrecision" stroke="rgb(66,139,202)" stroke-width="4" stroke-miterlimit="1.45">
      <ellipse rx="52.3714" fill="none" ry="18" clip-path="url(#clipPath2)" cx="257.6417" cy="164.5104"/>
    </g>
    <g fill="white" text-rendering="geometricPrecision" shape-rendering="geometricPrecision" transform="matrix(1,0,0,1,75,77)" stroke="white">
      <ellipse rx="52.3714" ry="18" clip-path="url(#clipPath2)" cx="314.5833" cy="240.7656" stroke="none"/>
    </g>
    <g font-size="11px" stroke-linecap="butt" transform="matrix(1,0,0,1,75,77)" text-rendering="geometricPrecision" font-family="sans-serif" shape-rendering="geometricPrecision" stroke-miterlimit="1.45">
      <text x="283.0228" xml:space="preserve" y="244.5737" clip-path="url(#clipPath2)" stroke="none">M. Rehberg</text>
    </g>
    <g stroke-linecap="butt" transform="matrix(1,0,0,1,75,77)" fill="rgb(66,139,202)" text-rendering="geometricPrecision" shape-rendering="geometricPrecision" stroke="rgb(66,139,202)" stroke-width="4" stroke-miterlimit="1.45">
      <ellipse rx="52.3714" fill="none" ry="18" clip-path="url(#clipPath2)" cx="314.5833" cy="240.7656"/>
    </g>
    <g fill="white" text-rendering="geometricPrecision" shape-rendering="geometricPrecision" transform="matrix(1,0,0,1,75,77)" stroke="white">
      <ellipse rx="52.3714" ry="18" clip-path="url(#clipPath2)" cx="102.775" cy="164.5104" stroke="none"/>
    </g>
    <g font-size="11px" stroke-linecap="butt" transform="matrix(1,0,0,1,75,77)" text-rendering="geometricPrecision" font-family="sans-serif" shape-rendering="geometricPrecision" stroke-miterlimit="1.45">
      <text x="79.7545" xml:space="preserve" y="168.3185" clip-path="url(#clipPath2)" stroke="none">I. Schulz</text>
    </g>
    <g stroke-linecap="butt" transform="matrix(1,0,0,1,75,77)" fill="rgb(66,139,202)" text-rendering="geometricPrecision" shape-rendering="geometricPrecision" stroke="rgb(66,139,202)" stroke-width="4" stroke-miterlimit="1.45">
      <ellipse rx="52.3714" fill="none" ry="18" clip-path="url(#clipPath2)" cx="102.775" cy="164.5104"/>
    </g>
    <g fill="white" text-rendering="geometricPrecision" shape-rendering="geometricPrecision" transform="matrix(1,0,0,1,75,77)" stroke="white">
      <ellipse rx="52.3714" ry="18" clip-path="url(#clipPath2)" cx="-10.6583" cy="164.5104" stroke="none"/>
    </g>
    <g font-size="11px" stroke-linecap="butt" transform="matrix(1,0,0,1,75,77)" text-rendering="geometricPrecision" font-family="sans-serif" shape-rendering="geometricPrecision" stroke-miterlimit="1.45">
      <text x="-32.7738" xml:space="preserve" y="168.3185" clip-path="url(#clipPath2)" stroke="none">P. Meier</text>
    </g>
    <g stroke-linecap="butt" transform="matrix(1,0,0,1,75,77)" fill="rgb(66,139,202)" text-rendering="geometricPrecision" shape-rendering="geometricPrecision" stroke="rgb(66,139,202)" stroke-width="4" stroke-miterlimit="1.45">
      <ellipse rx="52.3714" fill="none" ry="18" clip-path="url(#clipPath2)" cx="-10.6583" cy="164.5104"/>
    </g>
    <g fill="white" text-rendering="geometricPrecision" shape-rendering="geometricPrecision" transform="matrix(1,0,0,1,75,77)" stroke="white">
      <ellipse rx="52.3714" ry="18" clip-path="url(#clipPath2)" cx="430.25" cy="240.7656" stroke="none"/>
    </g>
    <g font-size="11px" stroke-linecap="butt" transform="matrix(1,0,0,1,75,77)" text-rendering="geometricPrecision" font-family="sans-serif" shape-rendering="geometricPrecision" stroke-miterlimit="1.45">
      <text x="405.2878" xml:space="preserve" y="244.5737" clip-path="url(#clipPath2)" stroke="none">O. Riedel</text>
    </g>
    <g stroke-linecap="butt" transform="matrix(1,0,0,1,75,77)" fill="rgb(66,139,202)" text-rendering="geometricPrecision" shape-rendering="geometricPrecision" stroke="rgb(66,139,202)" stroke-width="4" stroke-miterlimit="1.45">
      <ellipse rx="52.3714" fill="none" ry="18" clip-path="url(#clipPath2)" cx="430.25" cy="240.7656"/>
    </g>
    <g font-size="10px" stroke-linecap="butt" transform="matrix(1,0,0,1,75,77)" text-rendering="geometricPrecision" font-family="sans-serif" shape-rendering="geometricPrecision" stroke-miterlimit="1.45">
      <text x="168.2749" xml:space="preserve" y="-55.2333" clip-path="url(#clipPath2)" stroke="none">Client</text>
      <rect x="158.9241" y="-71.1352" clip-path="url(#clipPath2)" fill="none" width="47.6518" rx="4" ry="4" height="24.88"/>
      <path fill="none" d="M134.8427 19.2779 L64.9697 65.9787" clip-path="url(#clipPath2)"/>
      <path d="M58.3185 70.4241 L71.0737 67.9129 L65.8011 65.423 L65.5169 59.599 Z" stroke="none" clip-path="url(#clipPath2)"/>
      <text x="33.3631" xml:space="preserve" font-size="9px" y="38.7347" clip-path="url(#clipPath2)" stroke="none">getMAAnzahl()</text>
    </g>
    <g stroke-linecap="butt" transform="matrix(1,0,0,1,75,77)" fill="rgb(45,86,122)" text-rendering="geometricPrecision" shape-rendering="geometricPrecision" stroke-dasharray="6,2" stroke="rgb(45,86,122)" stroke-miterlimit="1.45">
      <path fill="none" d="M76.4547 72.5217 L140.5569 29.684" clip-path="url(#clipPath2)"/>
      <path d="M147.2083 25.239 L134.453 27.7494 L139.7254 30.2397 L140.0093 36.0637 Z" clip-path="url(#clipPath2)" stroke="none"/>
      <rect x="103.8133" y="41.1279" clip-path="url(#clipPath2)" fill="white" width="12.3496" height="17.9688" stroke="none"/>
      <text x="105.8133" y="54.2666" clip-path="url(#clipPath2)" font-family="sans-serif" stroke-dasharray="none" stroke="none" font-weight="bold" xml:space="preserve">3</text>
      <path fill="none" stroke-dasharray="none" d="M233.6526 16.2236 L314.0819 66.1598" clip-path="url(#clipPath2)" stroke="black"/>
      <path fill="black" stroke-dasharray="none" d="M320.8784 70.3796 L313.321 59.8021 L313.2323 65.6323 L308.0462 68.2978 Z" clip-path="url(#clipPath2)" stroke="none"/>
    </g>
    <g font-size="9px" stroke-linecap="butt" transform="matrix(1,0,0,1,75,77)" text-rendering="geometricPrecision" font-family="sans-serif" shape-rendering="geometricPrecision" stroke-miterlimit="1.45">
      <text x="282.4667" xml:space="preserve" y="37.2823" clip-path="url(#clipPath2)" stroke="none">getMAAnzahl()</text>
    </g>
    <g stroke-linecap="butt" transform="matrix(1,0,0,1,75,77)" fill="rgb(45,86,122)" text-rendering="geometricPrecision" shape-rendering="geometricPrecision" stroke-dasharray="6,2" stroke="rgb(45,86,122)" stroke-miterlimit="1.45">
      <path fill="none" d="M296.6787 71.3244 L227.5735 28.5958" clip-path="url(#clipPath2)"/>
      <path d="M220.7691 24.3886 L228.3462 34.9521 L228.424 29.1217 L233.6052 26.4467 Z" clip-path="url(#clipPath2)" stroke="none"/>
      <rect x="253.1395" y="39.2372" clip-path="url(#clipPath2)" fill="white" width="12.3496" height="17.9688" stroke="none"/>
      <text x="255.1395" y="52.3759" clip-path="url(#clipPath2)" font-family="sans-serif" stroke-dasharray="none" stroke="none" font-weight="bold" xml:space="preserve">5</text>
      <path fill="none" stroke-dasharray="none" d="M342.22 103.5306 L367.6363 139.9399" clip-path="url(#clipPath2)" stroke="black"/>
      <path fill="black" stroke-dasharray="none" d="M372.2155 146.4997 L369.4466 133.798 L367.0639 139.12 L361.2469 139.5221 Z" clip-path="url(#clipPath2)" stroke="none"/>
    </g>
    <g font-size="9px" stroke-linecap="butt" transform="matrix(1,0,0,1,75,77)" text-rendering="geometricPrecision" font-family="sans-serif" shape-rendering="geometricPrecision" stroke-miterlimit="1.45">
      <text x="366.1719" xml:space="preserve" y="126.3221" clip-path="url(#clipPath2)" stroke="none">getMAAnzahl()</text>
    </g>
    <g stroke-linecap="butt" transform="matrix(1,0,0,1,75,77)" fill="rgb(45,86,122)" text-rendering="geometricPrecision" shape-rendering="geometricPrecision" stroke-dasharray="6,2" stroke="rgb(45,86,122)" stroke-miterlimit="1.45">
      <path fill="none" d="M354.4836 147.5433 L330.8522 112.4291" clip-path="url(#clipPath2)"/>
      <path d="M326.3856 105.7922 L328.9374 118.5393 L331.4105 113.2588 L337.2336 112.956 Z" clip-path="url(#clipPath2)" stroke="none"/>
      <rect x="334.068" y="117.3984" clip-path="url(#clipPath2)" fill="white" width="12.3496" height="17.9688" stroke="none"/>
      <text x="336.068" y="130.5371" clip-path="url(#clipPath2)" font-family="sans-serif" stroke-dasharray="none" stroke="none" font-weight="bold" xml:space="preserve">3</text>
      <path fill="none" stroke-dasharray="none" d="M182.75 30 L182.75 62.2552" clip-path="url(#clipPath2)" stroke="black"/>
      <path fill="black" stroke-dasharray="none" d="M182.75 70.2552 L187.75 58.2552 L182.75 61.2552 L177.75 58.2552 Z" clip-path="url(#clipPath2)" stroke="none"/>
      <path fill="none" d="M195.3619 70.8051 L195.3619 37.45" clip-path="url(#clipPath2)"/>
      <path d="M195.3619 29.45 L190.3619 41.45 L195.3619 38.45 L200.3619 41.45 Z" clip-path="url(#clipPath2)" stroke="none"/>
      <rect x="189.1871" y="41.1432" clip-path="url(#clipPath2)" fill="white" width="12.3496" height="17.9688" stroke="none"/>
      <text x="191.1871" y="54.2819" clip-path="url(#clipPath2)" font-family="sans-serif" stroke-dasharray="none" stroke="none" font-weight="bold" xml:space="preserve">1</text>
      <path fill="none" stroke-dasharray="none" d="M285.9694 103.3579 L257.9083 140.2332" clip-path="url(#clipPath2)" stroke="black"/>
      <path fill="black" stroke-dasharray="none" d="M253.0637 146.5995 L264.3095 140.0779 L258.5139 139.4374 L256.3517 134.0221 Z" clip-path="url(#clipPath2)" stroke="none"/>
    </g>
    <g font-size="9px" stroke-linecap="butt" transform="matrix(1,0,0,1,75,77)" text-rendering="geometricPrecision" font-family="sans-serif" shape-rendering="geometricPrecision" stroke-miterlimit="1.45">
      <text x="197.7659" xml:space="preserve" y="128.0094" clip-path="url(#clipPath2)" stroke="none">getMAAnzahl()</text>
    </g>
    <g stroke-linecap="butt" transform="matrix(1,0,0,1,75,77)" fill="rgb(45,86,122)" text-rendering="geometricPrecision" shape-rendering="geometricPrecision" stroke-dasharray="6,2" stroke="rgb(45,86,122)" stroke-miterlimit="1.45">
      <path fill="none" d="M270.6608 147.0755 L296.7777 112.1002" clip-path="url(#clipPath2)"/>
      <path d="M301.5642 105.6901 L290.3781 112.3137 L296.1794 112.9015 L298.3907 118.2968 Z" clip-path="url(#clipPath2)" stroke="none"/>
      <rect x="279.9377" y="117.3984" clip-path="url(#clipPath2)" fill="white" width="12.3496" height="17.9688" stroke="none"/>
      <text x="281.9377" y="130.5371" clip-path="url(#clipPath2)" font-family="sans-serif" stroke-dasharray="none" stroke="none" font-weight="bold" xml:space="preserve">1</text>
      <path fill="none" stroke-dasharray="none" d="M345.6688 180.1299 L320.8645 216.1911" clip-path="url(#clipPath2)" stroke="black"/>
      <path fill="black" stroke-dasharray="none" d="M316.3308 222.7823 L327.251 215.729 L321.4312 215.3672 L319.0119 210.0618 Z" clip-path="url(#clipPath2)" stroke="none"/>
    </g>
    <g font-size="9px" stroke-linecap="butt" transform="matrix(1,0,0,1,75,77)" text-rendering="geometricPrecision" font-family="sans-serif" shape-rendering="geometricPrecision" stroke-miterlimit="1.45">
      <text x="259.9188" xml:space="preserve" y="201.0002" clip-path="url(#clipPath2)" stroke="none">getMAAnzahl()</text>
    </g>
    <g stroke-linecap="butt" transform="matrix(1,0,0,1,75,77)" fill="rgb(45,86,122)" text-rendering="geometricPrecision" shape-rendering="geometricPrecision" stroke-dasharray="6,2" stroke="rgb(45,86,122)" stroke-miterlimit="1.45">
      <path fill="none" d="M333.0557 223.9315 L356.026 188.7706" clip-path="url(#clipPath2)"/>
      <path d="M360.4014 182.0731 L349.6524 189.3847 L355.4791 189.6078 L358.0243 194.8539 Z" clip-path="url(#clipPath2)" stroke="none"/>
      <rect x="340.7918" y="193.6536" clip-path="url(#clipPath2)" fill="white" width="12.3496" height="17.9688" stroke="none"/>
      <text x="342.7918" y="206.7923" clip-path="url(#clipPath2)" font-family="sans-serif" stroke-dasharray="none" stroke="none" font-weight="bold" xml:space="preserve">1</text>
      <path fill="none" stroke-dasharray="none" d="M74.4752 104.3143 L100.1664 140.0565" clip-path="url(#clipPath2)" stroke="black"/>
      <path fill="black" stroke-dasharray="none" d="M104.8356 146.5524 L101.8917 133.8902 L99.5827 139.2445 L93.7717 139.7268 Z" clip-path="url(#clipPath2)" stroke="none"/>
    </g>
    <g font-size="9px" stroke-linecap="butt" transform="matrix(1,0,0,1,75,77)" text-rendering="geometricPrecision" font-family="sans-serif" shape-rendering="geometricPrecision" stroke-miterlimit="1.45">
      <text x="100.5273" xml:space="preserve" y="127.0971" clip-path="url(#clipPath2)" stroke="none">getMAAnzahl()</text>
    </g>
    <g stroke-linecap="butt" transform="matrix(1,0,0,1,75,77)" fill="rgb(45,86,122)" text-rendering="geometricPrecision" shape-rendering="geometricPrecision" stroke-dasharray="6,2" stroke="rgb(45,86,122)" stroke-miterlimit="1.45">
      <path fill="none" d="M91.5167 146.9186 L67.0805 112.3237" clip-path="url(#clipPath2)"/>
      <path d="M62.465 105.7894 L65.3043 118.4755 L67.6574 113.1405 L73.4722 112.7062 Z" clip-path="url(#clipPath2)" stroke="none"/>
      <rect x="70.8363" y="117.3984" clip-path="url(#clipPath2)" fill="white" width="12.3496" height="17.9688" stroke="none"/>
      <text x="72.8363" y="130.5371" clip-path="url(#clipPath2)" font-family="sans-serif" stroke-dasharray="none" stroke="none" font-weight="bold" xml:space="preserve">1</text>
      <path fill="none" stroke-dasharray="none" d="M20.8386 103.0164 L-1.7012 139.7821" clip-path="url(#clipPath2)" stroke="black"/>
      <path fill="black" stroke-dasharray="none" d="M-5.8825 146.6024 L4.6522 138.9852 L-1.1785 138.9296 L-3.8732 133.7586 Z" clip-path="url(#clipPath2)" stroke="none"/>
    </g>
    <g font-size="9px" stroke-linecap="butt" transform="matrix(1,0,0,1,75,77)" text-rendering="geometricPrecision" font-family="sans-serif" shape-rendering="geometricPrecision" stroke-miterlimit="1.45">
      <text x="-67.6868" xml:space="preserve" y="127.3389" clip-path="url(#clipPath2)" stroke="none">getMAAnzahl()</text>
    </g>
    <g stroke-linecap="butt" transform="matrix(1,0,0,1,75,77)" fill="rgb(45,86,122)" text-rendering="geometricPrecision" shape-rendering="geometricPrecision" stroke-dasharray="6,2" stroke="rgb(45,86,122)" stroke-miterlimit="1.45">
      <path fill="none" d="M9.9125 147.9803 L29.7018 112.2104" clip-path="url(#clipPath2)"/>
      <path d="M33.5745 105.2102 L23.3903 113.29 L29.2177 113.0854 L32.1405 118.1309 Z" clip-path="url(#clipPath2)" stroke="none"/>
      <rect x="15.6863" y="117.3984" clip-path="url(#clipPath2)" fill="white" width="12.3496" height="17.9688" stroke="none"/>
      <text x="17.6863" y="130.5371" clip-path="url(#clipPath2)" font-family="sans-serif" stroke-dasharray="none" stroke="none" font-weight="bold" xml:space="preserve">1</text>
      <path fill="none" stroke-dasharray="none" d="M402.512 179.0789 L429.0346 216.2966" clip-path="url(#clipPath2)" stroke="black"/>
      <path fill="black" stroke-dasharray="none" d="M433.6773 222.8116 L430.7851 210.1374 L428.4542 215.4823 L422.6414 215.9409 Z" clip-path="url(#clipPath2)" stroke="none"/>
    </g>
    <g font-size="9px" stroke-linecap="butt" transform="matrix(1,0,0,1,75,77)" text-rendering="geometricPrecision" font-family="sans-serif" shape-rendering="geometricPrecision" stroke-miterlimit="1.45">
      <text x="421.5585" xml:space="preserve" y="197.376" clip-path="url(#clipPath2)" stroke="none">getMAAnzahl()</text>
    </g>
    <g stroke-linecap="butt" transform="matrix(1,0,0,1,75,77)" fill="rgb(45,86,122)" text-rendering="geometricPrecision" shape-rendering="geometricPrecision" stroke-dasharray="6,2" stroke="rgb(45,86,122)" stroke-miterlimit="1.45">
      <path fill="none" d="M416.9241 223.358 L390.0637 188.2703" clip-path="url(#clipPath2)"/>
      <path d="M385.2009 181.9179 L388.5249 194.4858 L390.6716 189.0643 L396.4654 188.4072 Z" clip-path="url(#clipPath2)" stroke="none"/>
      <rect x="394.8877" y="193.6536" clip-path="url(#clipPath2)" fill="white" width="12.3496" height="17.9688" stroke="none"/>
      <text x="396.8877" y="206.7923" clip-path="url(#clipPath2)" font-family="sans-serif" stroke-dasharray="none" stroke="none" font-weight="bold" xml:space="preserve">1</text>
      <path fill="none" d="M192.5804 -5.7083 L192.5804 -38.2505" clip-path="url(#clipPath2)"/>
      <path d="M192.5804 -46.2505 L187.5804 -34.2505 L192.5804 -37.2505 L197.5804 -34.2505 Z" clip-path="url(#clipPath2)" stroke="none"/>
      <rect x="182.2308" y="-35.112" clip-path="url(#clipPath2)" fill="white" width="20.6992" height="17.9688" stroke="none"/>
      <text x="184.2308" y="-21.9733" clip-path="url(#clipPath2)" font-family="sans-serif" stroke-dasharray="none" stroke="none" font-weight="bold" xml:space="preserve">10</text>
      <path fill="none" stroke-dasharray="none" d="M182.75 -46.2393 L182.75 -14.0059" clip-path="url(#clipPath2)" stroke="black"/>
      <path fill="black" stroke-dasharray="none" d="M182.75 -6.0059 L187.75 -18.0059 L182.75 -15.0059 L177.75 -18.0059 Z" clip-path="url(#clipPath2)" stroke="none"/>
    </g>
    <g font-size="9px" stroke-linecap="butt" transform="matrix(1,0,0,1,75,77)" text-rendering="geometricPrecision" font-family="sans-serif" shape-rendering="geometricPrecision" stroke-miterlimit="1.45">
      <text x="113.5921" xml:space="preserve" y="-23.0119" clip-path="url(#clipPath2)" stroke="none">getMAAnzahl()</text>
    </g>
  </g>
</svg>
