<?xml version="1.0" encoding="UTF-8"?><svg xmlns="http://www.w3.org/2000/svg" xmlns:xlink="http://www.w3.org/1999/xlink" fill-opacity="1" color-rendering="auto" color-interpolation="auto" text-rendering="auto" stroke="black" stroke-linecap="square" width="493" stroke-miterlimit="10" shape-rendering="auto" stroke-opacity="1" fill="black" stroke-dasharray="none" font-weight="normal" stroke-width="1" height="386" font-family="'Dialog'" font-style="normal" stroke-linejoin="miter" font-size="12px" stroke-dashoffset="0" image-rendering="auto">
  <!--Generated by ySVG 2.5-->
  <defs id="genericDefs"/>
  <g>
    <defs id="defs1">
      <clipPath clipPathUnits="userSpaceOnUse" id="clipPath1">
        <path d="M0 0 L493 0 L493 386 L0 386 L0 0 Z"/>
      </clipPath>
      <clipPath clipPathUnits="userSpaceOnUse" id="clipPath2">
        <path d="M233 136 L726 136 L726 522 L233 522 L233 136 Z"/>
      </clipPath>
      <clipPath clipPathUnits="userSpaceOnUse" id="clipPath3">
        <path d="M368 141 L563 141 L563 274 L368 274 L368 141 Z"/>
      </clipPath>
      <clipPath clipPathUnits="userSpaceOnUse" id="clipPath4">
        <path d="M0 0 L0 64 L157 64 L157 0 Z"/>
      </clipPath>
      <clipPath clipPathUnits="userSpaceOnUse" id="clipPath5">
        <path d="M238 336 L433 336 L433 398 L238 398 L238 336 Z"/>
      </clipPath>
      <clipPath clipPathUnits="userSpaceOnUse" id="clipPath6">
        <path d="M485 336 L680 336 L680 442 L485 442 L485 336 Z"/>
      </clipPath>
      <clipPath clipPathUnits="userSpaceOnUse" id="clipPath7">
        <path d="M0 0 L0 18 L60 18 L60 0 Z"/>
      </clipPath>
      <clipPath clipPathUnits="userSpaceOnUse" id="clipPath8">
        <path d="M0 0 L0 18 L59 18 L59 0 Z"/>
      </clipPath>
      <script type="text/ecmascript"><![CDATA[      var SVGDocument = null;
      var SVGRoot = null;
      var TrueCoords = null;
      var lastElement = null;
      var initialized = null;
      var tipGroup;
      function Init(evt)
      {
         SVGDocument = evt.target.ownerDocument;
         SVGRoot = SVGDocument.documentElement;
         TrueCoords = SVGRoot.createSVGPoint();
         initialized = evt;
      };
      function GetTrueCoords(evt)
      {
         var newScale = SVGRoot.currentScale;
         var translation = SVGRoot.currentTranslate;
         TrueCoords.x = (evt.clientX - translation.x)/newScale;
         TrueCoords.y = (evt.clientY - translation.y)/newScale;
      };
      function HideTooltip( evt )
      {
         if(initialized == null) {
           Init(evt);
         }
         if(tipGroup != null) {
           tipGroup.setAttributeNS(null, 'visibility', 'hidden');
         }
      };
      function ShowTooltip( evt )
      {
         if(initialized == null) {
           Init(evt);
         }
         GetTrueCoords( evt );
         var tipScale = 1/SVGRoot.currentScale;
         var targetElement = evt.currentTarget;
         if ( lastElement != targetElement )
         {
            var targetId = targetElement.getAttributeNS(null, 'id');
            var tipId = 'tooltip.' + targetId;
            tipGroup = SVGDocument.getElementById(tipId);
            var xPos = TrueCoords.x + (10 * tipScale);
            var yPos = TrueCoords.y + (10 * tipScale);
            tipGroup.setAttributeNS(null, 'transform', 'translate(' + xPos + ',' + yPos + ') scale(' + tipScale + ')');
            tipGroup.setAttributeNS(null, 'visibility', 'visible');
         }
      };
]]></script>
    </defs>
    <g fill="white" text-rendering="geometricPrecision" shape-rendering="geometricPrecision" transform="translate(-233,-136)" stroke="white">
      <rect x="233" width="493" height="386" y="136" clip-path="url(#clipPath2)" stroke="none"/>
    </g>
    <g onmouseout="HideTooltip(evt)" id="y.node.0" onmousemove="ShowTooltip(evt)">
      <g fill="rgb(255,204,0)" text-rendering="geometricPrecision" shape-rendering="geometricPrecision" transform="matrix(1,0,0,1,-233,-136)" stroke="rgb(255,204,0)">
        <rect x="369" width="193" height="131" y="142" stroke="none"/>
      </g>
      <g fill="yellow" text-rendering="geometricPrecision" shape-rendering="geometricPrecision" transform="matrix(1,0,0,1,-233,-136)" stroke="yellow">
        <rect x="368" width="1" height="133" y="141" stroke="none"/>
        <rect x="369" width="193" height="1" y="141" stroke="none"/>
        <rect fill="rgb(178,142,0)" x="369" width="194" height="1" y="273" stroke="none"/>
        <rect fill="rgb(178,142,0)" x="562" width="1" height="132" y="141" stroke="none"/>
      </g>
      <g text-rendering="geometricPrecision" stroke-miterlimit="1.45" shape-rendering="geometricPrecision" font-family="sans-serif" transform="matrix(1,0,0,1,-233,-136)" stroke-linecap="butt">
        <text x="430.6416" xml:space="preserve" y="158.0645" clip-path="url(#clipPath3)" stroke="none">&lt;&lt;abstract&gt;&gt;</text>
      </g>
      <g>
        <g stroke-linecap="butt" font-size="13px" transform="matrix(1,0,0,1,-233,-136)" text-rendering="geometricPrecision" font-family="sans-serif" shape-rendering="geometricPrecision" font-style="italic" font-weight="bold" stroke-miterlimit="1.45">
          <text x="429.8945" xml:space="preserve" y="182.771" clip-path="url(#clipPath3)" stroke="none">Component</text>
        </g>
      </g>
      <g text-rendering="geometricPrecision" shape-rendering="geometricPrecision" transform="matrix(1,0,0,1,-233,-136)">
        <line y2="190" fill="none" x1="369" clip-path="url(#clipPath3)" x2="562" y1="190"/>
        <line y2="200" fill="none" x1="369" clip-path="url(#clipPath3)" x2="562" y1="200"/>
      </g>
      <g stroke-linecap="butt" transform="matrix(1,0,0,1,-233,-136) translate(373,205)" text-rendering="geometricPrecision" font-family="sans-serif" shape-rendering="geometricPrecision" font-style="italic" stroke-miterlimit="1.45">
        <text x="0" xml:space="preserve" y="13" clip-path="url(#clipPath4)" stroke="none">operation()</text>
        <text font-style="normal" x="60" xml:space="preserve" y="13" clip-path="url(#clipPath4)" stroke="none"> </text>
        <text font-style="normal" x="0" xml:space="preserve" y="29" clip-path="url(#clipPath4)" stroke="none">add(comp: Component)</text>
        <text font-style="normal" x="131" xml:space="preserve" y="29" clip-path="url(#clipPath4)" stroke="none"> </text>
        <text font-style="normal" x="0" xml:space="preserve" y="45" clip-path="url(#clipPath4)" stroke="none">remove(comp: Component) .</text>
        <text font-style="normal" x="157" xml:space="preserve" y="45" clip-path="url(#clipPath4)" stroke="none"> </text>
        <text font-style="normal" x="0" xml:space="preserve" y="61" clip-path="url(#clipPath4)" stroke="none">getChild(index: int)</text>
      </g>
    </g>
    <g onmouseout="HideTooltip(evt)" id="y.node.1" onmousemove="ShowTooltip(evt)">
      <g fill="rgb(255,204,0)" text-rendering="geometricPrecision" shape-rendering="geometricPrecision" transform="matrix(1,0,0,1,-233,-136)" stroke="rgb(255,204,0)">
        <rect x="239" width="193" height="60" y="337" stroke="none"/>
        <rect fill="yellow" x="238" width="1" height="62" y="336" stroke="none"/>
        <rect fill="yellow" x="239" width="193" height="1" y="336" stroke="none"/>
        <rect fill="rgb(178,142,0)" x="239" width="194" height="1" y="397" stroke="none"/>
        <rect fill="rgb(178,142,0)" x="432" width="1" height="61" y="336" stroke="none"/>
      </g>
      <g>
        <g font-size="13px" stroke-linecap="butt" transform="matrix(1,0,0,1,-233,-136)" text-rendering="geometricPrecision" font-family="sans-serif" shape-rendering="geometricPrecision" font-weight="bold" stroke-miterlimit="1.45">
          <text x="322.135" xml:space="preserve" y="354.0698" clip-path="url(#clipPath5)" stroke="none">Leaf</text>
        </g>
      </g>
      <g text-rendering="geometricPrecision" shape-rendering="geometricPrecision" transform="matrix(1,0,0,1,-233,-136)">
        <line y2="361" fill="none" x1="239" clip-path="url(#clipPath5)" x2="432" y1="361"/>
        <line y2="371" fill="none" x1="239" clip-path="url(#clipPath5)" x2="432" y1="371"/>
        <text stroke-linecap="butt" x="243" y="388.9907" clip-path="url(#clipPath5)" font-family="sans-serif" stroke="none" stroke-miterlimit="1.45" xml:space="preserve">operation()</text>
      </g>
    </g>
    <g onmouseout="HideTooltip(evt)" id="y.node.2" onmousemove="ShowTooltip(evt)">
      <g fill="rgb(255,204,0)" text-rendering="geometricPrecision" shape-rendering="geometricPrecision" transform="matrix(1,0,0,1,-233,-136)" stroke="rgb(255,204,0)">
        <rect x="486" width="193" height="104" y="337" stroke="none"/>
        <rect fill="yellow" x="485" width="1" height="106" y="336" stroke="none"/>
        <rect fill="yellow" x="486" width="193" height="1" y="336" stroke="none"/>
        <rect fill="rgb(178,142,0)" x="486" width="194" height="1" y="441" stroke="none"/>
        <rect fill="rgb(178,142,0)" x="679" width="1" height="105" y="336" stroke="none"/>
      </g>
      <g>
        <g font-size="13px" stroke-linecap="butt" transform="matrix(1,0,0,1,-233,-136)" text-rendering="geometricPrecision" font-family="sans-serif" shape-rendering="geometricPrecision" font-weight="bold" stroke-miterlimit="1.45">
          <text x="548.9146" xml:space="preserve" y="354.0698" clip-path="url(#clipPath6)" stroke="none">Composite</text>
        </g>
      </g>
      <g text-rendering="geometricPrecision" shape-rendering="geometricPrecision" transform="matrix(1,0,0,1,-233,-136)">
        <line y2="361" fill="none" x1="486" clip-path="url(#clipPath6)" x2="679" y1="361"/>
        <line y2="371" fill="none" x1="486" clip-path="url(#clipPath6)" x2="679" y1="371"/>
        <text stroke-linecap="butt" x="490" y="388.9907" clip-path="url(#clipPath6)" font-family="sans-serif" stroke="none" stroke-miterlimit="1.45" xml:space="preserve">operation()</text>
        <text stroke-linecap="butt" x="490" y="403.6919" clip-path="url(#clipPath6)" font-family="sans-serif" stroke="none" stroke-miterlimit="1.45" xml:space="preserve">add(comp: Component)</text>
        <text stroke-linecap="butt" x="490" y="418.3931" clip-path="url(#clipPath6)" font-family="sans-serif" stroke="none" stroke-miterlimit="1.45" xml:space="preserve">remove(comp: Component)</text>
        <text stroke-linecap="butt" x="490" y="433.0942" clip-path="url(#clipPath6)" font-family="sans-serif" stroke="none" stroke-miterlimit="1.45" xml:space="preserve">getChild(index: int)</text>
      </g>
    </g>
    <g id="y.node.3">
      <g fill="white" text-rendering="geometricPrecision" shape-rendering="geometricPrecision" transform="matrix(1,0,0,1,-233,-136)" stroke="white">
        <rect x="238" width="80" height="39" y="165" stroke="none"/>
      </g>
      <g>
        <g stroke-linecap="butt" transform="matrix(1,0,0,1,-233,-136)" fill="gray" text-rendering="geometricPrecision" font-family="sans-serif" shape-rendering="geometricPrecision" stroke="gray" stroke-miterlimit="1.45">
          <text x="262.6602" xml:space="preserve" y="189.2139" stroke="none">Client</text>
        </g>
      </g>
      <g stroke-linecap="butt" transform="matrix(1,0,0,1,-233,-136)" fill="gray" text-rendering="geometricPrecision" shape-rendering="geometricPrecision" stroke="gray" stroke-miterlimit="1.45">
        <rect fill="none" x="238" width="80" height="39" y="165"/>
      </g>
    </g>
    <g onmouseout="HideTooltip(evt)" id="y.node.4" onmousemove="ShowTooltip(evt)">
      <g fill="white" text-rendering="geometricPrecision" shape-rendering="geometricPrecision" transform="matrix(1,0,0,1,-233,-136)" stroke="white">
        <path d="M365.3333 460 L665 460 L665 475 L680 475 L680 516.5 L365.3333 516.5 Z" stroke="none"/>
        <path d="M665 460 L665 475 L680 475 Z" stroke="none" fill-rule="evenodd"/>
      </g>
      <g text-rendering="geometricPrecision" stroke-miterlimit="1.45" shape-rendering="geometricPrecision" transform="matrix(1,0,0,1,-233,-136)" stroke-linecap="butt">
        <path fill="none" d="M365.3333 460 L665 460 L665 475 L680 475 L680 516.5 L365.3333 516.5 Z"/>
        <path fill="none" d="M665 460 L665 475 L680 475 Z" fill-rule="evenodd"/>
      </g>
      <g>
        <g text-rendering="geometricPrecision" stroke-miterlimit="1.45" shape-rendering="geometricPrecision" font-family="sans-serif" transform="matrix(1,0,0,1,-233,-136)" stroke-linecap="butt">
          <text x="371.3333" xml:space="preserve" y="478.2627" stroke="none">for each Component comp in childComponents{</text>
          <text x="371.3333" xml:space="preserve" y="492.9639" stroke="none">      comp.operation();</text>
          <text x="371.3333" xml:space="preserve" y="507.665" stroke="none">}</text>
        </g>
      </g>
    </g>
    <g id="y.edge.0">
      <g text-rendering="geometricPrecision" stroke-miterlimit="1.45" shape-rendering="geometricPrecision" transform="matrix(1,0,0,1,-233,-136)" stroke-linecap="butt">
        <path fill="none" d="M335.5 335.9717 L335.5 316 L431.4867 316 L431.4867 289.0145"/>
        <path fill="white" d="M431.4867 274.0145 L425.4867 290.0145 L437.4867 290.0145 Z" stroke="none"/>
        <path fill="none" d="M431.4867 274.0145 L425.4867 290.0145 L437.4867 290.0145 Z"/>
      </g>
      <g/>
    </g>
    <g id="y.edge.2">
      <g text-rendering="geometricPrecision" stroke-miterlimit="1.45" shape-rendering="geometricPrecision" transform="matrix(1,0,0,1,-233,-136)" stroke-linecap="butt">
        <path fill="none" d="M563.483 172.3 L720.4062 172.3 L720.4062 409 L686.9972 409"/>
        <path fill="white" d="M679.9972 409 L686.9972 404 L693.9972 409 L686.9972 414 Z" stroke="none"/>
        <path fill="none" d="M679.9972 409 L686.9972 404 L693.9972 409 L686.9972 414 Z"/>
      </g>
      <g>
        <g text-rendering="geometricPrecision" stroke-miterlimit="1.45" shape-rendering="geometricPrecision" font-family="sans-serif" transform="matrix(1,0,0,1,-233,-136)" stroke-linecap="butt">
          <text x="575.625" xml:space="preserve" y="188.3645" stroke="none">0..*</text>
        </g>
      </g>
      <g>
        <g text-rendering="geometricPrecision" stroke-miterlimit="1.45" shape-rendering="geometricPrecision" font-family="sans-serif" transform="matrix(1,0,0,1,-233,-136)" stroke-linecap="butt">
          <text x="576.7031" xml:space="preserve" y="164.9475" stroke="none">childComponents</text>
        </g>
      </g>
    </g>
    <g id="y.edge.1">
      <g text-rendering="geometricPrecision" stroke-miterlimit="1.45" shape-rendering="geometricPrecision" transform="matrix(1,0,0,1,-233,-136)" stroke-linecap="butt">
        <path fill="none" d="M582.5 335.9966 L582.5 316 L491.7876 316 L491.7876 289.0145"/>
        <path fill="white" d="M491.7876 274.0145 L485.7876 290.0145 L497.7876 290.0145 Z" stroke="none"/>
        <path fill="none" d="M491.7876 274.0145 L485.7876 290.0145 L497.7876 290.0145 Z"/>
      </g>
      <g/>
    </g>
    <g id="y.edge.4">
      <g text-rendering="geometricPrecision" stroke-miterlimit="1.45" stroke-dasharray="6,2" shape-rendering="geometricPrecision" transform="matrix(1,0,0,1,-233,-136)" stroke-linecap="butt">
        <path fill="none" d="M680.0059 381 L706.88 381 L706.88 212.3 L571.4752 212.3"/>
        <path d="M563.4752 212.3 L575.4752 217.3 L572.4752 212.3 L575.4752 207.3 Z" stroke="none"/>
      </g>
      <g>
        <g text-rendering="geometricPrecision" stroke-miterlimit="1.45" shape-rendering="geometricPrecision" font-family="sans-serif" transform="matrix(1,0,0,1,-233,-136)" stroke-linecap="butt">
          <text x="656.8429" xml:space="preserve" y="282.864" stroke="none">&lt;&lt;call&gt;&gt;</text>
        </g>
      </g>
    </g>
    <g id="y.edge.3">
      <g stroke-linecap="butt" transform="matrix(1,0,0,1,-233,-136)" fill="gray" text-rendering="geometricPrecision" shape-rendering="geometricPrecision" stroke="gray" stroke-miterlimit="1.45">
        <path fill="none" d="M318 184.5 L360.4775 184.5"/>
        <path d="M368.4775 184.5 L356.4775 179.5 L359.4775 184.5 L356.4775 189.5 Z" stroke="none"/>
      </g>
    </g>
    <g id="y.edge.5">
      <g text-rendering="geometricPrecision" stroke-miterlimit="1.45" stroke-dasharray="6,2" shape-rendering="geometricPrecision" transform="matrix(1,0,0,1,-233,-136)" stroke-linecap="butt">
        <path fill="none" d="M680.0059 381 L706.88 381 L706.88 488.25 L680.0305 488.25"/>
      </g>
      <g/>
    </g>
    <g visibility="hidden" id="tooltip.y.node.0" pointer-events="none">
      <g fill="rgb(255,255,225)" text-rendering="geometricPrecision" shape-rendering="geometricPrecision" font-family="'Segoe UI'" stroke="rgb(255,255,225)">
        <rect x="0" width="60" height="18" y="0" clip-path="url(#clipPath7)" stroke="none"/>
        <text fill="black" x="4" xml:space="preserve" y="14" clip-path="url(#clipPath7)" stroke="none">UMLClass</text>
      </g>
      <g font-family="'Segoe UI'" text-rendering="geometricPrecision" shape-rendering="geometricPrecision">
        <path d="M0 0 L60 0 L60 18 L0 18 L0 0 ZM1 1 L59 1 L59 17 L1 17 L1 1 Z" fill-rule="evenodd" clip-path="url(#clipPath7)" stroke="none"/>
      </g>
    </g>
    <g visibility="hidden" id="tooltip.y.node.1" pointer-events="none">
      <g fill="rgb(255,255,225)" text-rendering="geometricPrecision" shape-rendering="geometricPrecision" font-family="'Segoe UI'" stroke="rgb(255,255,225)">
        <rect x="0" width="60" height="18" y="0" clip-path="url(#clipPath7)" stroke="none"/>
        <text fill="black" x="4" xml:space="preserve" y="14" clip-path="url(#clipPath7)" stroke="none">UMLClass</text>
      </g>
      <g font-family="'Segoe UI'" text-rendering="geometricPrecision" shape-rendering="geometricPrecision">
        <path d="M0 0 L60 0 L60 18 L0 18 L0 0 ZM1 1 L59 1 L59 17 L1 17 L1 1 Z" fill-rule="evenodd" clip-path="url(#clipPath7)" stroke="none"/>
      </g>
    </g>
    <g visibility="hidden" id="tooltip.y.node.2" pointer-events="none">
      <g fill="rgb(255,255,225)" text-rendering="geometricPrecision" shape-rendering="geometricPrecision" font-family="'Segoe UI'" stroke="rgb(255,255,225)">
        <rect x="0" width="60" height="18" y="0" clip-path="url(#clipPath7)" stroke="none"/>
        <text fill="black" x="4" xml:space="preserve" y="14" clip-path="url(#clipPath7)" stroke="none">UMLClass</text>
      </g>
      <g font-family="'Segoe UI'" text-rendering="geometricPrecision" shape-rendering="geometricPrecision">
        <path d="M0 0 L60 0 L60 18 L0 18 L0 0 ZM1 1 L59 1 L59 17 L1 17 L1 1 Z" fill-rule="evenodd" clip-path="url(#clipPath7)" stroke="none"/>
      </g>
    </g>
    <g visibility="hidden" id="tooltip.y.node.4" pointer-events="none">
      <g fill="rgb(255,255,225)" text-rendering="geometricPrecision" shape-rendering="geometricPrecision" font-family="'Segoe UI'" stroke="rgb(255,255,225)">
        <rect x="0" width="59" height="18" y="0" clip-path="url(#clipPath8)" stroke="none"/>
        <text fill="black" x="4" xml:space="preserve" y="14" clip-path="url(#clipPath8)" stroke="none">UMLNote</text>
      </g>
      <g font-family="'Segoe UI'" text-rendering="geometricPrecision" shape-rendering="geometricPrecision">
        <path d="M0 0 L59 0 L59 18 L0 18 L0 0 ZM1 1 L58 1 L58 17 L1 17 L1 1 Z" fill-rule="evenodd" clip-path="url(#clipPath8)" stroke="none"/>
      </g>
    </g>
  </g>
</svg>
